<svg xmlns="http://www.w3.org/2000/svg" version="1.2" viewBox="0 0 100 100"><path d="M25 15v70c0 5.523 4.477 10 10 10h30c5.523 0 10-4.477 10-10V15c0-5.523-4.477-10-10-10H35c-5.523 0-10 4.477-10 10zm42.5 0v70c0 1.378-1.122 2.5-2.5 2.5H35a2.503 2.503 0 0 1-2.5-2.5V15c0-1.379 1.122-2.5 2.5-2.5h30c1.378 0 2.5 1.121 2.5 2.5z"/><path d="M37.5 17.5h5v5h-5zM57.5 27.5h5v5h-5zM47.5 27.5h5v5h-5zM37.5 27.5h5v5h-5zM37.5 37.5h5v5h-5zM37.5 47.5h5v5h-5zM37.5 67.5h5v5h-5zM37.5 77.5h5v5h-5zM47.5 77.5h5v5h-5zM57.5 77.5h5v5h-5zM57.5 67.5h5v5h-5zM57.5 47.5h5v5h-5zM57.5 37.5h5v5h-5zM47.5 37.5h5v5h-5zM42.5 62.5h5v5h5v-5h5v-5h-5v-5h-5v5h-5z"/></svg>