<svg xmlns="http://www.w3.org/2000/svg" viewBox="0 0 32 32"><g data-name="Layer 2"><path d="M17.5,27a11,11,0,0,1-11-11,11.27,11.27,0,0,1,.22-2.2,11,11,0,0,1,3-5.58,11,11,0,0,1,15.55,0,11,11,0,0,1,0,15.55A11,11,0,0,1,17.5,27Zm0-20a9,9,0,0,0-8.82,7.2A9.24,9.24,0,0,0,8.5,16,9,9,0,0,0,13,23.79a9,9,0,0,0,10.86-1.43,9,9,0,0,0,0-12.73A9,9,0,0,0,17.5,7Z"/><path d="M23.5 9.07L22 8.21a9.15 9.15 0 0 0-9 0l-1.5.87V3a2 2 0 0 1 2-2h8a2 2 0 0 1 2 2zM17.5 5a11 11 0 0 1 4 .75V3h-8V5.75A11 11 0 0 1 17.5 5zm4-2h0zM21.5 31h-8a2 2 0 0 1-2-2V22.93l1.5.87a9.15 9.15 0 0 0 9 0l1.5-.87V29A2 2 0 0 1 21.5 31zm-8-4.75V29h8V26.25A11.14 11.14 0 0 1 13.5 26.25zM17.47 22.56a6.59 6.59 0 0 1-6.4-6.4 6.51 6.51 0 0 1 5.35-6.5 1 1 0 0 1 1.15 1h0a1 1 0 0 1-.83 1A4.5 4.5 0 1 0 22 16.89a1 1 0 0 1 1-.83h0a1 1 0 0 1 1 1.15A6.51 6.51 0 0 1 17.47 22.56z"/><rect width="2" height="2" x="16.5" y="15" rx="1" ry="1"/><path d="M22.5 3V7.34a10 10 0 0 0-10 0V3a1 1 0 0 1 1-1h8A1 1 0 0 1 22.5 3zM22.5 24.66V29a1 1 0 0 1-1 1h-8a1 1 0 0 1-1-1V24.66a10 10 0 0 0 10 0zM8.92 19h-3A2.41 2.41 0 0 1 3.5 16.59V15.41A2.41 2.41 0 0 1 5.91 13h3l-.24 1.2A9.22 9.22 0 0 0 8.5 16a9 9 0 0 0 .18 1.8zm-3-4a.41.41 0 0 0-.41.41v1.18a.41.41 0 0 0 .41.41h.63c0-.33 0-.67 0-1s0-.67 0-1z"/></g></svg>